<?xml version="1.0" encoding="UTF-8"?>
<svg width="66px" height="66px" viewBox="0 0 66 66" version="1.1" xmlns="http://www.w3.org/2000/svg" xmlns:xlink="http://www.w3.org/1999/xlink">
    <!-- Generator: Sketch 61.1 (89650) - https://sketch.com -->
    <title>全感知icon</title>
    <desc>Created with Sketch.</desc>
    <g id="页面-1" stroke="none" stroke-width="1" fill="none" fill-rule="evenodd">
        <g id="城市安全解决方案官网" transform="translate(-450.000000, -1487.000000)" stroke="#333333" stroke-width="2">
            <g id="方案优势" transform="translate(5.000000, 1237.000000)">
                <g id="方案优势四块" transform="translate(370.000000, 180.000000)">
                    <g id="全感知">
                        <g id="全感知icon" transform="translate(76.000000, 71.000000)">
                            <line x1="32.5100416" y1="36.4900478" x2="32.4899584" y2="36.5099522" id="Stroke-1"></line>
                            <g id="编组" transform="translate(16.000000, 0.000000)">
                                <polyline id="Stroke-3" points="31.9903273 27.5430768 31.9903273 10.1927082 31.9903273 9.4887203 15.9967891 0.219546187 0.00325098182 9.4887203 0.00325098182 10.1927082 0.00325098182 27.5284104"></polyline>
                                <polygon id="Stroke-5" points="0.00485090909 9.49298 0.00485090909 10.192568 15.9998497 19.4646754 31.9948484 10.192568 31.9948484 9.49298 15.9998497 0.219405962"></polygon>
                            </g>
                            <line x1="31.5" y1="20" x2="31.5" y2="37" id="Stroke-7"></line>
                            <g id="编组" transform="translate(0.000000, 27.000000)">
                                <polygon id="Stroke-9" points="0.00590618182 9.39258784 0.00590618182 27.6539955 16.0009049 36.7832553 31.9959037 27.6539955 31.9959037 9.39258784 16.0009049 0.263328039"></polygon>
                                <polygon id="Stroke-11" points="0.00590618182 9.39258784 0.00590618182 10.0828419 16.0009049 19.2135458 31.9959037 10.0828419 31.9959037 9.39258784 16.0009049 0.263328039"></polygon>
                                <line x1="16.0012" y1="19.5657524" x2="16.0012" y2="36.5087459" id="Stroke-13"></line>
                                <polygon id="Stroke-15" points="32.0036509 9.39258784 32.0036509 27.6539955 47.9986497 36.7832553 63.9936484 27.6539955 63.9936484 9.39258784 47.9986497 0.263328039"></polygon>
                                <polygon id="Stroke-17" points="32.0036509 9.39258784 32.0036509 10.0828419 47.9986497 19.2135458 63.9936484 10.0828419 63.9936484 9.39258784 47.9986497 0.263328039"></polygon>
                                <line x1="47.9988" y1="19.5657524" x2="47.9988" y2="36.5087459" id="Stroke-19"></line>
                            </g>
                        </g>
                    </g>
                </g>
            </g>
        </g>
    </g>
</svg>