<?xml version="1.0" encoding="UTF-8"?>
<svg width="59px" height="66px" viewBox="0 0 59 66" version="1.1" xmlns="http://www.w3.org/2000/svg" xmlns:xlink="http://www.w3.org/1999/xlink">
    <!-- Generator: Sketch 61.1 (89650) - https://sketch.com -->
    <title>安防icon</title>
    <desc>Created with Sketch.</desc>
    <g id="页面-1" stroke="none" stroke-width="1" fill="none" fill-rule="evenodd">
        <g id="城市安全解决方案官网" transform="translate(-453.000000, -1698.000000)" stroke="#333333" stroke-width="2">
            <g id="方案优势" transform="translate(5.000000, 1237.000000)">
                <g id="方案优势四块" transform="translate(370.000000, 180.000000)">
                    <g id="安防" transform="translate(0.000000, 211.000000)">
                        <g id="安防icon" transform="translate(79.000000, 71.000000)">
                            <g id="编组" transform="translate(18.424242, 21.333333)">
                                <line x1="0.159684156" y1="7.87656611" x2="8.6350167" y2="16.2586692" id="Stroke-1"></line>
                                <line x1="22.7607539" y1="0.425262933" x2="7.69320007" y2="15.3270722" id="Stroke-3"></line>
                            </g>
                            <g id="编组">
                                <path d="M44.1714274,30.6615667 C44.1714274,39.4863405 36.9661795,46.6412387 28.0793048,46.6412387 C19.1924301,46.6412387 11.9871822,39.4863405 11.9871822,30.6615667 C11.9871822,21.8367928 19.1924301,14.6818947 28.0793048,14.6818947 C36.9661795,14.6818947 44.1714274,21.8367928 44.1714274,30.6615667 Z" id="Stroke-5"></path>
                                <line x1="48.1944614" y1="51.9678" x2="39.1654396" y2="42.8687084" id="Stroke-7"></line>
                                <path d="M0.0130355209,30.1667333 C0.0130355209,23.2022596 0.00230743919,16.5946652 0.00230743919,8.25194482 C7.78821276,5.74313632 16.3599501,2.74827946 28.1206097,0.0343984987 C39.8826103,2.74827946 48.4543476,5.74313632 56.2402529,8.25194482 C56.2402529,16.5946652 56.2295248,23.2022596 56.2295248,30.1667333 C56.2295248,49.7911022 40.4780188,60.5867023 28.1219507,63.9530865 C15.7658825,60.5867023 0.0130355209,49.7911022 0.0130355209,30.1667333 Z" id="Stroke-9"></path>
                            </g>
                        </g>
                    </g>
                </g>
            </g>
        </g>
    </g>
</svg>