<?xml version="1.0" encoding="UTF-8"?>
<svg width="64px" height="64px" viewBox="0 0 64 64" version="1.1" xmlns="http://www.w3.org/2000/svg" xmlns:xlink="http://www.w3.org/1999/xlink">
    <!-- Generator: Sketch 61.1 (89650) - https://sketch.com -->
    <title>融合icon</title>
    <desc>Created with Sketch.</desc>
    <g id="页面-1" stroke="none" stroke-width="1" fill="none" fill-rule="evenodd">
        <g id="城市安全解决方案官网" transform="translate(-1041.000000, -1488.000000)" fill="#333333">
            <g id="方案优势" transform="translate(5.000000, 1237.000000)">
                <g id="方案优势四块" transform="translate(370.000000, 180.000000)">
                    <g id="融合" transform="translate(590.000000, 0.000000)">
                        <g id="融合icon" transform="translate(76.000000, 71.000000)">
                            <g id="编组">
                                <path d="M0,64 L64,64 L64,0 L0,0 L0,64 Z M2.00072727,2 L62.0007273,2 L62.0007273,62 L2.00072727,62 L2.00072727,2 Z" id="Fill-1"></path>
                                <path d="M0,16 L64,16 L64,0 L0,0 L0,16 Z M2.00072727,2 L62.0007273,2 L62.0007273,14 L2.00072727,14 L2.00072727,2 Z" id="Fill-3"></path>
                            </g>
                            <path d="M18.8333333,49.1666667 C18.8333333,47.6866667 19.6333333,46.4066667 20.8333333,45.7066667 C21.4133333,45.3666667 22.1133333,45.1666667 22.8333333,45.1666667 C23.5533333,45.1666667 24.2533333,45.3666667 24.8333333,45.7066667 C24.8933333,45.7466667 24.9533333,45.7866667 25.0333333,45.8266667 C26.1133333,46.5466667 26.8333333,47.7666667 26.8333333,49.1666667 C26.8333333,49.2466667 26.8333333,49.3266667 26.8133333,49.4066667 C26.6933333,51.5066667 24.9533333,53.1666667 22.8333333,53.1666667 C20.6333333,53.1666667 18.8333333,51.3666667 18.8333333,49.1666667 M22.9945948,43.5537975 L23.0959545,31.4351976 C25.1330441,31.1812954 26.9265625,30.4912756 27.7692681,28.3153735 L41.1149724,35 C40.8118055,35.5968844 40.6339225,37.0409683 40.6339225,37.5 C40.6339225,37.9590317 40.7781318,39.2240757 41.1149724,40.025481 L27.7692681,46.658287 C27.1661783,45.6064738 26.7895542,44.5491143 23.9504244,43.7165326 L22.9945948,43.5537975 Z M20.8333333,29.2933333 C19.6333333,28.5933333 18.8333333,27.3133333 18.8333333,25.8333333 C18.8333333,23.6333333 20.6333333,21.8333333 22.8333333,21.8333333 C24.9533333,21.8333333 26.6933333,23.4933333 26.8133333,25.5933333 C26.8333333,25.6733333 26.8333333,25.7533333 26.8333333,25.8333333 C26.8333333,27.2333333 26.1133333,28.4533333 25.0333333,29.1733333 C24.9533333,29.2133333 24.8933333,29.2533333 24.8333333,29.2933333 C24.2533333,29.6333333 23.5533333,29.8333333 22.8333333,29.8333333 C22.1133333,29.8333333 21.4133333,29.6333333 20.8333333,29.2933333 M50.23,37.3433333 C50.25,37.4233333 50.25,37.5033333 50.25,37.5833333 C50.25,37.6633333 50.25,37.7433333 50.23,37.8233333 C50.11,39.9233333 48.37,41.5833333 46.25,41.5833333 C45.45,41.5833333 44.69,41.3433333 44.05,40.9233333 C42.97,40.2033333 42.25,38.9833333 42.25,37.5833333 C42.25,36.1833333 42.97,34.9633333 44.05,34.2433333 C44.69,33.8233333 45.45,33.5833333 46.25,33.5833333 C48.37,33.5833333 50.11,35.2433333 50.23,37.3433333 M28.6666667,49.1666667 C28.6666667,48.74375 28.6229167,48.3354167 28.5354167,47.9416667 L41.7770833,41.3354167 C42.8416667,42.5604167 44.4166667,43.3333333 46.1666667,43.3333333 C49.3895833,43.3333333 52,40.7229167 52,37.5 C52,34.2770833 49.3895833,31.6666667 46.1666667,31.6666667 C44.4166667,31.6666667 42.8416667,32.4395833 41.7770833,33.6645833 L28.5354167,27.0583333 C28.6229167,26.6645833 28.6666667,26.25625 28.6666667,25.8333333 C28.6666667,22.6104167 26.05625,20 22.8333333,20 C19.6104167,20 17,22.6104167 17,25.8333333 C17,28.5458333 18.8520833,30.8354167 21.375,31.4770833 L21.375,43.5229167 C18.8520833,44.1645833 17,46.4541667 17,49.1666667 C17,52.3895833 19.6104167,55 22.8333333,55 C26.05625,55 28.6666667,52.3895833 28.6666667,49.1666667" id="Fill-4"></path>
                        </g>
                    </g>
                </g>
            </g>
        </g>
    </g>
</svg>