<?xml version="1.0" encoding="UTF-8"?>
<svg width="79px" height="66px" viewBox="0 0 79 66" version="1.1" xmlns="http://www.w3.org/2000/svg" xmlns:xlink="http://www.w3.org/1999/xlink">
    <!-- Generator: Sketch 61.1 (89650) - https://sketch.com -->
    <title>软件icon</title>
    <desc>Created with Sketch.</desc>
    <g id="页面-1" stroke="none" stroke-width="1" fill="none" fill-rule="evenodd">
        <g id="城市安全解决方案官网" transform="translate(-1035.000000, -1700.000000)" stroke="#333333" stroke-width="2">
            <g id="方案优势" transform="translate(5.000000, 1237.000000)">
                <g id="方案优势四块" transform="translate(370.000000, 180.000000)">
                    <g id="全软件" transform="translate(590.000000, 211.000000)">
                        <g id="软件icon" transform="translate(71.000000, 73.000000)">
                            <path d="M57.2903226,51.6129032 L60.4094624,51.6129032 C69.1144086,51.6129032 76.3870968,44.4516129 76.3870968,35.3870968 C76.3870968,34.8870968 76.3711828,34.3870968 76.3075269,33.8870968 C75.6073118,26.1612903 69.4645161,19.983871 61.6507527,19.5967742 C61.1733333,17.2903226 60.3935484,15.0967742 59.3591398,13.0645161 C59.1045161,12.5806452 58.8180645,12.1129032 58.5316129,11.6451613 C58.467957,11.5483871 58.4202151,11.4354839 58.3565591,11.3387097 C58.0064516,10.7580645 57.6086022,10.1935484 57.2107527,9.66129032 C57.1789247,9.61290323 57.1470968,9.58064516 57.1152688,9.53225806 C56.7015054,8.98387097 56.271828,8.43548387 55.7944086,7.91935484 L55.7466667,7.87096774 C55.523871,7.62903226 55.3010753,7.37096774 55.0464516,7.12903226 C54.791828,6.87096774 54.5372043,6.61290323 54.2825806,6.37096774 C53.7574194,5.87096774 53.2163441,5.40322581 52.6434409,4.96774194 C52.3729032,4.75806452 52.1023656,4.56451613 51.815914,4.35483871 C51.5453763,4.14516129 51.2748387,3.9516129 50.9883871,3.79032258 C50.7496774,3.62903226 50.5268817,3.48387097 50.288172,3.35483871 C49.9380645,3.12903226 49.587957,2.93548387 49.2378495,2.75806452 C48.824086,2.53225806 48.3944086,2.32258065 47.9488172,2.11290323 C47.9010753,2.09677419 47.8374194,2.06451613 47.7896774,2.0483871 C46.8348387,1.61290323 45.8322581,1.24193548 44.7978495,0.951612903 C44.368172,0.822580645 43.9225806,0.709677419 43.4769892,0.596774194 C43.4451613,0.596774194 43.3974194,0.580645161 43.3655914,0.580645161 C43.1746237,0.532258065 42.9995699,0.483870968 42.8245161,0.467741935 C42.4107527,0.370967742 41.9810753,0.306451613 41.5673118,0.241935484 C41.0421505,0.161290323 40.5329032,0.112903226 40.0077419,0.0806451613 C39.8963441,0.064516129 39.7690323,0.0483870968 39.6576344,0.0483870968 C39.1802151,0.0161290323 38.6868817,0 38.1935484,0 C37.7002151,0 37.2068817,0.0161290323 36.7294624,0.0483870968 C36.6021505,0.0483870968 36.4907527,0.064516129 36.3793548,0.0806451613 C35.8541935,0.112903226 35.3449462,0.161290323 34.8197849,0.241935484 C34.4060215,0.306451613 33.9763441,0.370967742 33.5625806,0.467741935 C33.3875269,0.483870968 33.2124731,0.532258065 33.0215054,0.580645161 C32.9896774,0.580645161 32.9578495,0.580645161 32.9101075,0.596774194 C32.4645161,0.709677419 32.0189247,0.822580645 31.5892473,0.951612903 C30.5548387,1.24193548 29.5522581,1.61290323 28.5974194,2.0483871 C28.5496774,2.06451613 28.5019355,2.09677419 28.4382796,2.11290323 C27.9926882,2.32258065 27.5630108,2.53225806 27.1492473,2.75806452 C26.7991398,2.9516129 26.4490323,3.14516129 26.0989247,3.35483871 C25.8602151,3.48387097 25.6374194,3.64516129 25.3987097,3.79032258 C25.1122581,3.96774194 24.8417204,4.16129032 24.5711828,4.35483871 C24.2847312,4.56451613 24.0141935,4.75806452 23.7436559,4.96774194 C19.224086,8.5 15.9458065,13.6612903 14.7363441,19.5967742 C6.92258065,19.983871 0.779784946,26.1612903 0.0795698925,33.8870968 C0.0159139785,34.3870968 0,34.8870968 0,35.3870968 C0,44.4516129 7.27268817,51.6129032 15.9776344,51.6129032 L19.0967742,51.6129032" id="Stroke-1"></path>
                            <polygon id="Stroke-3" points="57.8064516 64 19.6129032 64 19.6129032 38.1935484 57.8064516 38.1935484"></polygon>
                            <path d="M26.8387097,38.1935484 L26.8387097,31.8027449 C26.8387097,25.6400704 31.9224332,20.6451613 38.1935484,20.6451613 C44.4646636,20.6451613 49.5483871,25.6400704 49.5483871,31.8027449 L49.5483871,38.1935484" id="Stroke-5"></path>
                            <line x1="43.3548387" y1="51.0967742" x2="34.0645161" y2="51.0967742" id="Stroke-7"></line>
                        </g>
                    </g>
                </g>
            </g>
        </g>
    </g>
</svg>